<svg width="35" height="35" viewBox="0 0 35 35" fill="none" xmlns="http://www.w3.org/2000/svg">
<path d="M1.08392 17.1025C1.08392 8.26598 8.24737 1.10254 17.0839 1.10254C25.9205 1.10254 33.0839 8.26598 33.0839 17.1025C33.0839 25.9391 25.9205 33.1025 17.0839 33.1025C8.24737 33.1025 1.08392 25.9391 1.08392 17.1025Z" fill="#FCF0DA"/>
<path d="M3.26063 12.7031C3.2447 12.8122 3.1072 12.9295 3.06656 13.0523C2.89863 13.5662 2.7879 13.7443 2.65106 14.2201C2.40461 14.927 2.40887 17.0875 1.76434 17.1025C1.76433 17.1025 1.76431 17.1025 1.76429 17.1025C1.75767 17.1025 1.75096 17.1023 1.74418 17.1019C1.61514 17.0944 1.47583 16.898 1.331 16.8659C1.18626 16.8339 0.243521 16.8447 0.199515 16.5409C0.13499 16.0996 0.473493 15.0795 0.500836 14.8551C0.514383 14.6985 0.45802 14.4943 0.476896 14.2908C0.540862 13.6368 0.676161 13.3203 0.601777 12.6867C0.781764 12.4872 0.965049 12.295 1.15149 12.1091C1.18773 11.7982 1.49368 11.4176 1.55137 11.2433C1.598 11.0996 1.54017 10.9817 1.59532 10.833C1.65685 10.6662 1.85801 10.4557 1.97785 10.158C2.17707 9.67173 1.99903 9.4739 2.11986 9.17333C2.24701 8.86064 2.62214 8.48044 2.77483 8.07519C2.7799 8.01521 2.7853 7.95515 2.79106 7.89502C2.71745 7.89325 2.64372 7.89191 2.56986 7.89101C2.66275 7.6913 2.82194 7.68385 2.93496 7.52068C3.06884 7.32895 3.03874 7.16111 3.13208 7.03248C3.20879 6.9272 3.3917 6.8444 3.48863 6.70788C3.63103 6.50932 3.48759 6.46471 3.54916 6.34409C3.56804 6.29283 4.14424 5.49293 4.18647 5.45478C4.46772 5.13849 4.63445 5.24608 4.87898 5.02047C5.55845 4.39799 6.17713 3.66489 6.84104 3.10618C7.13597 2.85706 7.47611 2.63858 7.81675 2.4594C7.5837 3.19269 8.88948 2.8278 8.06984 2.42587C8.48726 2.29942 8.64446 1.96967 9.01933 1.81048C9.2615 1.70949 9.47033 1.72264 9.8031 1.56235C10.3888 1.27726 10.9655 0.733147 11.3305 1.18968C12.0178 0.83679 12.705 0.862016 12.856 0.322375C13.044 0.24244 13.609 0.41329 13.8301 0.412714C14.042 0.389559 15.6408 0.308329 15.898 0.31807C16.1593 0.30573 16.6098 0.295944 16.829 0.251316C16.9179 0.232891 16.9982 0.167802 17.0839 0.108399C17.2613 -0.0153533 17.4707 -0.115791 17.7858 0.296412C18.3562 0.275461 18.5589 0.309843 19.0767 0.436887C19.1702 0.460559 19.17 0.549027 19.2249 0.55608C19.3384 0.570543 19.5387 0.53244 19.7433 0.557194C20.08 0.598192 20.2324 0.817843 20.2485 0.533552C20.476 0.528653 20.7068 0.528954 20.937 0.533812C21.0018 0.604648 21.0657 0.675833 21.1286 0.747353C21.2583 0.718298 21.3895 0.690901 21.5217 0.665148C21.2815 1.01903 22.1504 1.01837 21.9564 0.718744C22.3532 0.924587 22.739 1.14494 23.1134 1.3789C22.8933 1.78386 23.9637 1.78405 23.9933 1.52816C24.0389 1.54885 24.0845 1.56973 24.1299 1.59081C24.4753 1.88411 24.8805 1.9717 25.3066 2.30241C25.7281 2.63551 25.6586 2.65354 25.685 2.91697C25.7961 2.97019 25.9066 3.02469 26.0167 3.08044C26.8812 2.95231 26.2244 3.70514 27.3606 4.00853C27.4124 4.51064 28.1799 4.91006 28.6684 5.23877C28.7252 5.27626 28.776 5.22616 28.8551 5.27369C29.0503 5.38938 29.3659 5.85973 29.5214 5.69153C29.6047 5.88066 29.6839 6.0703 29.7591 6.26045C29.8936 6.3533 30.0273 6.44858 30.1598 6.54605C30.2151 6.5003 30.2704 6.45455 30.3258 6.40879C30.3401 6.81272 30.7152 7.15674 30.811 7.39575C30.8298 7.44304 30.7555 7.50865 30.82 7.64943C30.8955 7.81406 31.1027 8.07431 31.1888 8.27119C31.3256 8.28276 31.4627 8.29608 31.6001 8.31108C31.8513 8.6127 31.6652 8.87599 31.7533 9.08167C31.7727 9.11686 32.1283 9.76004 32.1479 9.7954C32.3284 10.0678 32.5305 9.87347 32.8477 10.7755C32.902 10.9366 32.8714 11.0951 32.9213 11.2392C33.0135 11.489 33.4465 12.2057 33.633 12.2215C33.5185 12.6023 33.8152 13.4345 33.7982 13.7065C33.7939 13.7872 33.6587 13.8321 33.672 14.0716C33.6838 14.265 33.8736 14.7404 33.8833 14.988C33.8945 15.2501 33.7838 15.3566 33.7868 15.4716C33.7893 15.5808 33.8947 15.6729 33.9055 15.8229C33.9374 16.2943 33.7939 16.7176 33.7915 17.0857C33.7914 17.0913 33.7914 17.0969 33.7914 17.1025C33.7928 17.6262 34.0514 18.1002 34.1389 18.5621C34.1109 18.6731 34.0395 18.7762 34.0267 18.8935C33.8724 20.3452 33.4296 21.9433 32.8364 23.2709C32.5829 23.9078 31.4733 25.1987 32.2486 25.1072C32.2548 25.386 31.13 26.7233 30.9219 26.9668C30.7301 27.2283 30.666 27.5042 30.5075 27.7077C30.0246 28.318 29.6061 28.6716 29.0031 29.4048C28.8467 29.5936 28.7461 29.8732 28.6358 29.9698C28.503 30.086 28.2735 30.1099 28.0953 30.2484C27.6753 30.5849 26.8923 31.2181 26.4419 31.4761C26.3602 31.5238 26.269 31.4437 26.1365 31.4843C25.6214 31.643 25.1223 31.9277 25.3909 32.2064C24.699 32.3451 24.2265 32.7833 23.6468 33.0358C22.4355 33.6065 20.0624 34.0903 18.9199 34.328C18.2034 34.4921 18.222 34.6733 17.1317 34.5461C17.1158 34.544 17.0999 34.5419 17.0839 34.5397C16.8577 34.5083 16.6313 34.4645 16.3626 34.4179C15.6799 34.2997 15.1118 33.9275 14.5505 34.2218C13.8198 34.016 13.213 33.9506 12.7599 33.5026C12.6776 33.56 12.5946 33.6169 12.5109 33.6732C12.4216 33.6505 12.3325 33.6272 12.2437 33.6031C12.2367 33.5251 12.23 33.447 12.2237 33.369C11.6089 33.1689 10.7246 33.1587 10.2086 32.9285C9.32387 32.5898 7.30056 31.2487 6.69398 30.6001C6.35936 30.2731 6.24089 30.3734 6.24358 29.9577C6.15042 29.9083 6.05758 29.858 5.96505 29.8066C5.87004 29.8169 5.77466 29.8263 5.67894 29.8349C5.22737 29.4362 4.80313 28.8549 4.4252 28.432C3.72583 27.676 2.64489 26.507 2.24692 25.5222C2.14425 25.2776 2.11879 24.9228 2.00359 24.6972C1.83716 24.3675 1.57943 24.3907 1.38157 23.9558C1.02786 23.2053 0.819804 21.6733 0.643764 20.937C0.586794 20.7176 0.477464 20.6314 0.436586 20.4787C0.26698 19.8381 0.197136 19.3003 2.25306e-05 18.6768C0.173059 17.9744 0.483341 18.0191 0.771992 17.8028C0.989972 17.6365 1.50768 17.1702 1.70774 17.1102C1.8471 17.0665 2.02698 17.2296 2.18029 17.1675C2.3111 17.8831 2.19897 18.1781 2.04461 18.7885C2.17305 19.871 2.41881 20.9377 2.77684 21.9645C2.72931 22.0851 2.68321 22.2069 2.63857 22.3298C2.6384 22.3298 2.63822 22.3299 2.63805 22.33C2.69383 22.7642 2.96558 22.8517 3.09772 23.0399C4.24484 24.8924 6.6029 28.4024 8.6812 29.7001C9.09173 30.019 10.6064 30.7105 10.8806 30.9566C10.9494 31.0262 10.9209 31.1548 11.009 31.1991C11.8451 31.4763 12.6988 31.6783 13.5574 31.8044C14.6656 32.206 15.8871 32.3245 17.0839 32.2808C17.7093 32.2587 18.3242 32.1948 18.9323 32.1101C23.7592 31.4606 28.0065 28.3551 30.2562 24.2103C30.7028 23.4105 31.0574 22.3074 31.3706 21.4744C31.501 21.1288 31.7471 21.0265 31.7104 20.5123C31.766 20.52 31.8217 20.5275 31.8773 20.535C31.9077 20.0955 31.8351 19.8053 31.8949 19.3289C31.954 18.9309 32.0353 17.8628 32.0561 17.5084C32.0711 17.3234 32.1743 17.3944 32.1757 17.2198C32.1757 17.185 32.1738 17.1456 32.1702 17.1025C32.1446 16.7727 32.012 16.2442 31.9812 15.8857C31.9552 15.5215 31.9942 14.8857 31.9269 14.606C31.6972 13.5983 31.2327 12.5801 30.8745 11.5651C30.7777 11.2845 30.7422 10.8763 30.6981 10.7922C30.613 10.6284 30.4703 10.6366 30.4011 10.5341C30.0562 10.0144 29.6977 9.10163 29.3451 8.59459C28.223 6.93369 26.6169 5.48948 24.9391 4.42765C23.8922 3.72068 21.9523 2.931 20.8378 2.57539C20.6 2.49321 20.6989 2.36931 20.491 2.32059C20.2597 2.26784 20.1134 2.33825 20.0051 2.32477C19.3161 2.22404 17.8797 2.16069 17.0839 2.11851C17.0028 2.11251 16.9284 2.10567 16.8622 2.09747C16.7254 2.08037 16.6228 1.9705 16.5404 1.97378C16.4986 1.97528 16.4083 2.05562 16.2789 2.0703C15.1367 2.20806 14.307 2.29465 13.2089 2.55067C11.0957 3.04288 8.90346 4.35017 7.16946 5.79373C6.78935 6.10505 6.3926 6.187 6.34302 6.23842C6.2365 6.35093 6.27233 6.52571 6.08733 6.77558C5.46852 7.59633 4.51577 8.61214 4.09247 9.50288C3.87747 9.9382 3.74618 10.6102 3.59741 11.0502C3.46893 11.3994 3.08876 12.1945 3.12107 12.3795C3.13708 12.4906 3.27707 12.5847 3.26063 12.7031ZM10.2128 1.51365C10.2464 1.77884 10.8964 1.27261 10.5675 1.25846C10.4923 1.25444 10.2028 1.44346 10.2128 1.51365ZM33.269 20.7194C33.343 20.7285 33.417 20.7376 33.491 20.7465C33.4833 20.6383 33.4747 20.5297 33.4648 20.4226C33.4097 20.4703 33.3541 20.5185 33.2985 20.5657C33.2889 20.617 33.2791 20.6682 33.269 20.7194Z" fill="black"/>
<g clip-path="url(#clip0_470_2017)">
<path d="M26.8486 15.7736C26.8384 15.7691 24.5386 15.6806 21.4091 15.6761C17.9266 15.6791 13.4509 15.7901 9.88822 16.2626C12.1763 14.2721 13.9861 13.0031 13.9905 12.9971C14.0643 12.9455 14.1276 12.8795 14.1766 12.8027C14.2256 12.726 14.2594 12.6401 14.2761 12.5499C14.2929 12.4597 14.2921 12.367 14.274 12.2771C14.2559 12.1872 14.2208 12.1018 14.1706 12.0259C14.1204 11.9499 14.0562 11.8849 13.9816 11.8345C13.907 11.7841 13.8235 11.7493 13.7358 11.7321C13.6481 11.7149 13.558 11.7156 13.4706 11.7343C13.3832 11.7529 13.3002 11.789 13.2263 11.8406C11.1524 13.3388 9.17462 14.9732 7.30551 16.7336C7.23746 16.7975 7.18269 16.8749 7.1445 16.9612C7.10631 17.0474 7.0855 17.1408 7.08332 17.2355C7.08114 17.3303 7.09764 17.4245 7.13181 17.5125C7.16599 17.6005 7.21714 17.6805 7.28218 17.7476C10.8697 21.4376 12.6824 22.6436 12.732 22.6766C12.8843 22.775 13.0681 22.8081 13.2439 22.7689C13.4197 22.7296 13.5736 22.6211 13.6726 22.4666C13.769 22.3101 13.8016 22.1209 13.7634 21.9398C13.7252 21.7588 13.6192 21.6005 13.4684 21.4991C13.4655 21.4961 13.0688 21.2351 12.1997 20.5016C11.1831 19.6292 10.1995 18.7171 9.25093 17.7671C12.7743 17.2121 17.6859 17.0741 21.4091 17.0771C24.5153 17.0771 26.7903 17.1671 26.7961 17.1671C26.9701 17.1646 27.1366 17.0935 27.2611 16.9685C27.3857 16.8435 27.4588 16.6741 27.4656 16.4952C27.4723 16.3164 27.4121 16.1417 27.2973 16.0072C27.1825 15.8726 27.0219 15.79 26.8486 15.7736Z" fill="black"/>
</g>
<defs>
<clipPath id="clip0_470_2017">
<rect width="20" height="12" fill="white" transform="translate(7.08392 11.1025)"/>
</clipPath>
</defs>
</svg>
