<svg width="46" height="46" viewBox="0 0 46 46" fill="none" xmlns="http://www.w3.org/2000/svg">
<path d="M8.625 37.1881H29.2819C33.6519 37.1881 37.1881 33.6519 37.1881 29.2819V8.625C37.1881 4.26938 33.6519 0.71875 29.2819 0.71875H8.625C6.5293 0.72255 4.52052 1.55675 3.03863 3.03863C1.55675 4.52052 0.72255 6.5293 0.71875 8.625V29.2819C0.71875 33.6519 4.26938 37.1881 8.625 37.1881ZM12.5063 16.8044H16.8044V12.5063C16.8044 11.3131 17.7675 10.35 18.9606 10.35C20.1538 10.35 21.1169 11.3131 21.1169 12.5063V16.8044H25.4006C26.5938 16.8044 27.5569 17.7675 27.5569 18.9606C27.5569 20.1538 26.5938 21.1169 25.4006 21.1169H21.1169V25.4006C21.1169 26.5938 20.1538 27.5569 18.9606 27.5569C17.7675 27.5569 16.8044 26.5938 16.8044 25.4006V21.1169H12.5063C11.3131 21.1169 10.35 20.1538 10.35 18.9606C10.35 17.7675 11.3131 16.8044 12.5063 16.8044Z" fill="#383838"/>
<path d="M43.125 16.7998C42.5531 16.7998 42.0046 17.027 41.6003 17.4314C41.1959 17.8357 40.9687 18.3842 40.9687 18.9561V34.4997C40.9687 38.0662 38.0664 40.9685 34.5 40.9685H18.9563C18.3844 40.9685 17.836 41.1957 17.4316 41.6C17.0272 42.0044 16.8 42.5529 16.8 43.1247C16.8 43.6966 17.0272 44.2451 17.4316 44.6494C17.836 45.0538 18.3844 45.281 18.9563 45.281H34.5C40.4455 45.281 45.2812 40.4452 45.2812 34.4997V18.9561C45.2812 18.3842 45.054 17.8357 44.6497 17.4314C44.2453 17.027 43.6968 16.7998 43.125 16.7998Z" fill="#383838"/>
</svg>
