<svg width="16" height="16" viewBox="0 0 16 16" fill="none" xmlns="http://www.w3.org/2000/svg">
<g clip-path="url(#clip0_518_3360)">
<path d="M2.52062 14.624C2.16687 14.1829 1.83428 13.7243 1.52405 13.2496C1.02113 12.4871 0.537915 11.711 0.0749053 10.922V10.9244C0.00170553 10.7992 -0.020333 10.6492 0.0136379 10.5073C0.0476087 10.3653 0.134806 10.2431 0.256048 10.1676C0.37729 10.092 0.522645 10.0693 0.660135 10.1043C0.797626 10.1394 0.915991 10.2294 0.989191 10.3546C1.12519 10.5882 1.67833 11.5249 2.28176 12.4427C2.74805 13.1788 3.34119 13.9456 3.61319 14.2217C3.70462 14.1462 3.82691 14.0353 3.96748 13.8985C4.31376 13.5587 4.78576 13.0609 5.33205 12.4568C6.42576 11.2464 7.82348 9.6137 9.21433 7.95383C11.9846 4.6506 14.78 1.15626 15.0223 0.776392C15.1021 0.657809 15.2237 0.576255 15.361 0.549268C15.4984 0.522281 15.6405 0.552017 15.7569 0.632082C15.8732 0.712146 15.9545 0.836143 15.9832 0.977408C16.0119 1.11867 15.9857 1.26592 15.9103 1.38749C15.3092 2.30177 7.31605 12.143 4.6989 14.6995C4.25091 15.064 4.20748 15.2976 3.61891 15.4038C3.00519 15.3129 2.88176 14.9909 2.52062 14.624Z" fill="#F66F6C"/>
</g>
<defs>
<clipPath id="clip0_518_3360">
<rect width="16" height="16" fill="white"/>
</clipPath>
</defs>
</svg>
