<svg width="46" height="42" viewBox="0 0 46 42" fill="none" xmlns="http://www.w3.org/2000/svg">
<path d="M22.75 19.9193C28.2505 19.9193 32.7096 15.4602 32.7096 9.95962C32.7096 4.45908 28.2505 0 22.75 0C17.2495 0 12.7904 4.45908 12.7904 9.95962C12.7904 15.4602 17.2495 19.9193 22.75 19.9193Z" fill="#383838"/>
<path d="M34.4695 3.77637C34.333 3.77637 34.2062 3.80887 34.073 3.81699C35.1004 5.70172 35.6374 7.81454 35.6346 9.96112C35.6355 11.6526 35.3024 13.3277 34.6543 14.8902C34.0062 16.4526 33.056 17.8717 31.8581 19.066C32.695 19.3728 33.5782 19.5344 34.4695 19.5437C36.5604 19.5437 38.5656 18.7131 40.0441 17.2347C41.5226 15.7562 42.3532 13.7509 42.3532 11.6601C42.3532 9.56917 41.5226 7.56392 40.0441 6.08545C38.5656 4.60697 36.5604 3.77637 34.4695 3.77637Z" fill="#383838"/>
<path d="M22.75 19.9193C28.2505 19.9193 32.7096 15.4602 32.7096 9.95962C32.7096 4.45908 28.2505 0 22.75 0C17.2495 0 12.7904 4.45908 12.7904 9.95962C12.7904 15.4602 17.2495 19.9193 22.75 19.9193Z" fill="#383838"/>
<path d="M5.889 31.065C5.889 27.7695 7.05088 24.7031 9.022 22.2575C7.51767 21.9761 6.09061 21.3773 4.836 20.5009C3.38177 21.2364 2.15992 22.3607 1.30621 23.7488C0.452493 25.1369 0.000346159 26.7346 0 28.3642V29.6252C0 30.5645 0.65975 31.3754 1.58275 31.5525C2.886 31.8027 4.32737 32.0237 5.889 32.183V31.065ZM9.86538 9.95949C9.86538 7.73649 10.4309 5.64349 11.427 3.81537C11.2937 3.80887 11.167 3.77637 11.0305 3.77637C8.93983 3.77637 6.93479 4.60688 5.45647 6.08521C3.97814 7.56353 3.14762 9.56857 3.14762 11.6592C3.14762 13.7499 3.97814 15.755 5.45647 17.2333C6.93479 18.7116 8.93983 19.5421 11.0305 19.5421C11.9503 19.5421 12.8213 19.3536 13.6419 19.0644C12.4438 17.8702 11.4934 16.4512 10.8453 14.8887C10.1972 13.3262 9.8642 11.6511 9.86538 9.95949ZM38.3142 24.2205C40.9731 24.2197 43.5245 25.2699 45.4122 27.1422C45.214 25.7349 44.6788 24.3963 43.8521 23.2403C43.0254 22.0843 41.9317 21.145 40.664 20.5025C39.4089 21.378 37.982 21.9767 36.478 22.2591C36.9818 22.8831 37.4302 23.5477 37.8219 24.2465C37.986 24.2367 38.1485 24.2205 38.3142 24.2205ZM28.2035 34.3312C28.2035 29.9957 30.9514 26.2989 34.7929 24.8656C33.5601 23.0274 31.8098 21.5961 29.7635 20.7527C27.6787 22.1183 25.2406 22.8456 22.7484 22.8456C20.2561 22.8456 17.8181 22.1183 15.7333 20.7527C13.6866 21.591 11.9355 23.0191 10.7028 24.8555C9.47006 26.6918 8.81146 28.8533 8.81075 31.065V32.6575C8.81075 33.8454 9.64438 34.8675 10.8095 35.0917C14.1375 35.7287 18.1675 36.2244 22.7467 36.2244C24.6157 36.2202 26.4836 36.1329 28.3449 35.9627C28.255 35.4235 28.2077 34.8779 28.2035 34.3312ZM38.3175 27.1439C34.3525 27.1439 31.135 30.3614 31.135 34.3264C31.135 38.2914 34.3525 41.5089 38.3175 41.5089C42.2825 41.5089 45.5 38.2914 45.5 34.3264C45.5 30.3614 42.2825 27.1439 38.3175 27.1439ZM40.7745 35.7937H39.7768V36.7899C39.7768 37.1777 39.6227 37.5497 39.3484 37.824C39.0741 38.0983 38.7021 38.2524 38.3142 38.2524C37.9264 38.2524 37.5544 38.0983 37.2801 37.824C37.0058 37.5497 36.8517 37.1777 36.8517 36.7899V35.7937H35.854C35.4661 35.7937 35.0941 35.6397 34.8199 35.3654C34.5456 35.0911 34.3915 34.7191 34.3915 34.3312C34.3915 33.9434 34.5456 33.5714 34.8199 33.2971C35.0941 33.0228 35.4661 32.8687 35.854 32.8687H36.8517V31.8726C36.8517 31.4847 37.0058 31.1127 37.2801 30.8385C37.5544 30.5642 37.9264 30.4101 38.3142 30.4101C38.7021 30.4101 39.0741 30.5642 39.3484 30.8385C39.6227 31.1127 39.7768 31.4847 39.7768 31.8726V32.8687H40.7745C41.1624 32.8687 41.5344 33.0228 41.8086 33.2971C42.0829 33.5714 42.237 33.9434 42.237 34.3312C42.237 34.7191 42.0829 35.0911 41.8086 35.3654C41.5344 35.6397 41.1624 35.7937 40.7745 35.7937Z" fill="#383838"/>
</svg>
