<svg width="35" height="35" viewBox="0 0 35 35" fill="none" xmlns="http://www.w3.org/2000/svg">
<path d="M1.08389 17.1025C1.08389 8.26598 8.24734 1.10254 17.0839 1.10254C25.9204 1.10254 33.0839 8.26598 33.0839 17.1025C33.0839 25.9391 25.9204 33.1025 17.0839 33.1025C8.24734 33.1025 1.08389 25.9391 1.08389 17.1025Z" fill="#FCF0DA"/>
<path d="M3.2606 12.7031C3.24467 12.8122 3.10717 12.9295 3.06653 13.0523C2.8986 13.5662 2.78787 13.7443 2.65103 14.2201C2.40458 14.927 2.40884 17.0875 1.76431 17.1025C1.7643 17.1025 1.76428 17.1025 1.76426 17.1025C1.75764 17.1025 1.75093 17.1023 1.74415 17.1019C1.61511 17.0944 1.4758 16.898 1.33097 16.8659C1.18622 16.8339 0.243491 16.8447 0.199484 16.5409C0.134959 16.0996 0.473462 15.0795 0.500805 14.8551C0.514353 14.6985 0.457989 14.4943 0.476865 14.2908C0.540832 13.6368 0.67613 13.3203 0.601746 12.6867C0.781734 12.4872 0.965018 12.295 1.15146 12.1091C1.1877 11.7982 1.49365 11.4176 1.55134 11.2433C1.59797 11.0996 1.54014 10.9817 1.59529 10.833C1.65682 10.6662 1.85798 10.4557 1.97781 10.158C2.17704 9.67173 1.999 9.4739 2.11983 9.17333C2.24698 8.86064 2.62211 8.48044 2.7748 8.07519C2.77986 8.01521 2.78527 7.95515 2.79103 7.89502C2.71742 7.89325 2.64369 7.89191 2.56983 7.89101C2.66272 7.6913 2.82191 7.68385 2.93493 7.52068C3.06881 7.32895 3.03871 7.16111 3.13205 7.03248C3.20876 6.9272 3.39167 6.8444 3.4886 6.70788C3.631 6.50932 3.48756 6.46471 3.54913 6.34409C3.56801 6.29283 4.14421 5.49293 4.18644 5.45478C4.46769 5.13849 4.63442 5.24608 4.87895 5.02047C5.55842 4.39799 6.17709 3.66489 6.84101 3.10618C7.13594 2.85706 7.47608 2.63858 7.81672 2.4594C7.58367 3.19269 8.88945 2.8278 8.06981 2.42587C8.48723 2.29942 8.64443 1.96967 9.0193 1.81048C9.26147 1.70949 9.4703 1.72264 9.80307 1.56235C10.3888 1.27726 10.9655 0.733147 11.3305 1.18968C12.0177 0.83679 12.7049 0.862016 12.8559 0.322375C13.0439 0.24244 13.609 0.41329 13.83 0.412714C14.042 0.389559 15.6408 0.308329 15.898 0.31807C16.1593 0.30573 16.6098 0.295944 16.829 0.251316C16.9179 0.232891 16.9981 0.167802 17.0839 0.108399C17.2613 -0.0153533 17.4707 -0.115791 17.7858 0.296412C18.3561 0.275461 18.5588 0.309843 19.0766 0.436887C19.1702 0.460559 19.1699 0.549027 19.2249 0.55608C19.3383 0.570543 19.5386 0.53244 19.7433 0.557194C20.08 0.598192 20.2324 0.817843 20.2485 0.533552C20.476 0.528653 20.7068 0.528954 20.937 0.533812C21.0018 0.604648 21.0656 0.675833 21.1286 0.747353C21.2583 0.718298 21.3895 0.690901 21.5217 0.665148C21.2814 1.01903 22.1503 1.01837 21.9563 0.718744C22.3532 0.924587 22.739 1.14494 23.1133 1.3789C22.8933 1.78386 23.9637 1.78405 23.9932 1.52816C24.0389 1.54885 24.0845 1.56973 24.1299 1.59081C24.4753 1.88411 24.8805 1.9717 25.3065 2.30241C25.7281 2.63551 25.6586 2.65354 25.6849 2.91697C25.796 2.97019 25.9066 3.02469 26.0166 3.08044C26.8812 2.95231 26.2244 3.70514 27.3606 4.00853C27.4124 4.51064 28.1798 4.91006 28.6683 5.23877C28.7251 5.27626 28.776 5.22616 28.855 5.27369C29.0503 5.38938 29.3659 5.85973 29.5213 5.69153C29.6046 5.88066 29.6838 6.0703 29.759 6.26045C29.8936 6.3533 30.0273 6.44858 30.1598 6.54605C30.2151 6.5003 30.2704 6.45455 30.3257 6.40879C30.34 6.81272 30.7152 7.15674 30.8109 7.39575C30.8297 7.44304 30.7555 7.50865 30.82 7.64943C30.8954 7.81406 31.1027 8.07431 31.1888 8.27119C31.3255 8.28276 31.4627 8.29608 31.6001 8.31108C31.8512 8.6127 31.6652 8.87599 31.7532 9.08167C31.7726 9.11686 32.1283 9.76004 32.1479 9.7954C32.3283 10.0678 32.5304 9.87347 32.8476 10.7755C32.902 10.9366 32.8714 11.0951 32.9212 11.2392C33.0135 11.489 33.4465 12.2057 33.633 12.2215C33.5185 12.6023 33.8152 13.4345 33.7982 13.7065C33.7939 13.7872 33.6587 13.8321 33.6719 14.0716C33.6838 14.265 33.8736 14.7404 33.8832 14.988C33.8944 15.2501 33.7838 15.3566 33.7867 15.4716C33.7893 15.5808 33.8947 15.6729 33.9055 15.8229C33.9374 16.2943 33.7939 16.7176 33.7914 17.0857C33.7914 17.0913 33.7914 17.0969 33.7914 17.1025C33.7927 17.6262 34.0514 18.1002 34.1389 18.5621C34.1109 18.6731 34.0395 18.7762 34.0266 18.8935C33.8724 20.3452 33.4295 21.9433 32.8364 23.2709C32.5829 23.9078 31.4732 25.1987 32.2486 25.1072C32.2548 25.386 31.13 26.7233 30.9218 26.9668C30.73 27.2283 30.666 27.5042 30.5075 27.7077C30.0246 28.318 29.6061 28.6716 29.003 29.4048C28.8467 29.5936 28.746 29.8732 28.6358 29.9698C28.503 30.086 28.2735 30.1099 28.0952 30.2484C27.6752 30.5849 26.8923 31.2181 26.4419 31.4761C26.3602 31.5238 26.269 31.4437 26.1365 31.4843C25.6214 31.643 25.1223 31.9277 25.3909 32.2064C24.699 32.3451 24.2264 32.7833 23.6467 33.0358C22.4354 33.6065 20.0623 34.0903 18.9199 34.328C18.2034 34.4921 18.2219 34.6733 17.1317 34.5461C17.1157 34.544 17.0998 34.5419 17.0839 34.5397C16.8576 34.5083 16.6313 34.4645 16.3626 34.4179C15.6799 34.2997 15.1118 33.9275 14.5505 34.2218C13.8198 34.016 13.213 33.9506 12.7598 33.5026C12.6776 33.56 12.5946 33.6169 12.5109 33.6732C12.4216 33.6505 12.3325 33.6272 12.2437 33.6031C12.2366 33.5251 12.23 33.447 12.2237 33.369C11.6089 33.1689 10.7245 33.1587 10.2086 32.9285C9.32384 32.5898 7.30053 31.2487 6.69395 30.6001C6.35933 30.2731 6.24086 30.3734 6.24355 29.9577C6.15039 29.9083 6.05755 29.858 5.96502 29.8066C5.87 29.8169 5.77463 29.8263 5.67891 29.8349C5.22733 29.4362 4.8031 28.8549 4.42516 28.432C3.7258 27.676 2.64486 26.507 2.24689 25.5222C2.14422 25.2776 2.11876 24.9228 2.00356 24.6972C1.83713 24.3675 1.5794 24.3907 1.38154 23.9558C1.02783 23.2053 0.819774 21.6733 0.643734 20.937C0.586763 20.7176 0.477433 20.6314 0.436556 20.4787C0.266949 19.8381 0.197105 19.3003 -7.98702e-06 18.6768C0.173029 17.9744 0.483311 18.0191 0.771962 17.8028C0.989942 17.6365 1.50765 17.1702 1.70771 17.1102C1.84707 17.0665 2.02695 17.2296 2.18026 17.1675C2.31107 17.8831 2.19894 18.1781 2.04458 18.7885C2.17302 19.871 2.41878 20.9377 2.77681 21.9645C2.72928 22.0851 2.68318 22.2069 2.63854 22.3298C2.63837 22.3298 2.63819 22.3299 2.63802 22.33C2.6938 22.7642 2.96555 22.8517 3.09769 23.0399C4.24481 24.8924 6.60287 28.4024 8.68117 29.7001C9.0917 30.019 10.6064 30.7105 10.8806 30.9566C10.9494 31.0262 10.9209 31.1548 11.009 31.1991C11.8451 31.4763 12.6988 31.6783 13.5573 31.8044C14.6656 32.206 15.8871 32.3245 17.0839 32.2808C17.7093 32.2587 18.3242 32.1948 18.9322 32.1101C23.7592 31.4606 28.0064 28.3551 30.2562 24.2103C30.7027 23.4105 31.0574 22.3074 31.3705 21.4744C31.501 21.1288 31.747 21.0265 31.7104 20.5123C31.766 20.52 31.8216 20.5275 31.8773 20.535C31.9077 20.0955 31.835 19.8053 31.8949 19.3289C31.9539 18.9309 32.0353 17.8628 32.0561 17.5084C32.071 17.3234 32.1742 17.3944 32.1756 17.2198C32.1757 17.185 32.1738 17.1456 32.1702 17.1025C32.1446 16.7727 32.012 16.2442 31.9812 15.8857C31.9552 15.5215 31.9942 14.8857 31.9269 14.606C31.6972 13.5983 31.2327 12.5801 30.8744 11.5651C30.7777 11.2845 30.7422 10.8763 30.6981 10.7922C30.613 10.6284 30.4703 10.6366 30.4011 10.5341C30.0562 10.0144 29.6977 9.10163 29.3451 8.59459C28.223 6.93369 26.6168 5.48948 24.9391 4.42765C23.8922 3.72068 21.9522 2.931 20.8378 2.57539C20.5999 2.49321 20.6989 2.36931 20.4909 2.32059C20.2597 2.26784 20.1134 2.33825 20.0051 2.32477C19.3161 2.22404 17.8797 2.16069 17.0839 2.11851C17.0028 2.11251 16.9284 2.10567 16.8622 2.09747C16.7253 2.08037 16.6227 1.9705 16.5403 1.97378C16.4985 1.97528 16.4082 2.05562 16.2789 2.0703C15.1367 2.20806 14.307 2.29465 13.2089 2.55067C11.0957 3.04288 8.90343 4.35017 7.16943 5.79373C6.78932 6.10505 6.39257 6.187 6.34299 6.23842C6.23647 6.35093 6.2723 6.52571 6.0873 6.77558C5.46849 7.59633 4.51574 8.61214 4.09244 9.50288C3.87744 9.9382 3.74615 10.6102 3.59738 11.0502C3.4689 11.3994 3.08873 12.1945 3.12104 12.3795C3.13704 12.4906 3.27704 12.5847 3.2606 12.7031ZM10.2127 1.51365C10.2463 1.77884 10.8964 1.27261 10.5675 1.25846C10.4922 1.25444 10.2028 1.44346 10.2127 1.51365ZM33.269 20.7194C33.343 20.7285 33.417 20.7376 33.491 20.7465C33.4833 20.6383 33.4747 20.5297 33.4648 20.4226C33.4096 20.4703 33.3541 20.5185 33.2985 20.5657C33.2889 20.617 33.279 20.6682 33.269 20.7194Z" fill="black"/>
<path d="M21.7374 21.0171C21.1805 21.0171 20.6701 21.1757 20.2854 21.4657C19.82 21.1605 19.3567 20.8523 18.8935 20.5441C17.4939 19.6129 16.0475 18.6509 14.5614 17.7952C14.6225 17.5185 14.6096 17.2257 14.5228 16.9219C14.4923 16.815 14.4533 16.7107 14.4062 16.6101C16.0489 15.7064 17.5647 14.5692 19.0317 13.4684C19.4221 13.1755 19.8126 12.8824 20.2055 12.5934C20.6426 12.9736 21.2447 13.1893 21.8804 13.1893L21.9132 13.1892C22.701 13.1799 23.472 12.8224 23.8773 12.2784C24.1977 11.8487 24.2841 11.3308 24.1272 10.7812C23.7961 9.62173 22.6611 9.10254 21.683 9.10254C20.9817 9.10254 20.3551 9.35591 19.9632 9.79746C19.6098 10.1959 19.4616 10.7285 19.5346 11.3375C19.5358 11.3475 19.5371 11.3575 19.5388 11.3673C19.1194 11.6749 18.7034 11.9875 18.2873 12.2998C16.7434 13.4592 15.1478 14.6574 13.4107 15.5722C13.0145 15.3598 12.5451 15.2438 12.0776 15.2438C11.3767 15.2438 10.7504 15.497 10.3589 15.9382C10.0055 16.3363 9.85739 16.8689 9.93047 17.4778C10.0762 18.6935 11.2212 19.3297 12.2767 19.3297L12.3092 19.3295C12.8098 19.3236 13.3199 19.1736 13.7261 18.9156C15.2514 19.7855 16.7372 20.7742 18.1749 21.7308C18.6451 22.0437 19.1155 22.3566 19.5878 22.6661C19.563 22.8519 19.5627 23.0479 19.5871 23.2508C19.7328 24.4663 20.8779 25.1025 21.9334 25.1025H21.9656C22.7536 25.0929 23.5244 24.7356 23.9299 24.1915C24.2501 23.7617 24.3365 23.2438 24.1794 22.6945C23.8484 21.536 22.7144 21.0171 21.7374 21.0171ZM21.0934 22.5828C21.2391 22.3945 21.4568 22.2821 21.6756 22.2821C21.7065 22.2821 21.7379 22.2845 21.7691 22.2892L21.7882 22.2922L21.8076 22.2905C22.2327 22.2568 22.5823 22.6525 22.796 22.9819C22.9216 23.1751 22.8689 23.2798 22.8517 23.3142C22.7346 23.5467 22.2547 23.6965 21.9532 23.7152C21.9273 23.717 21.9011 23.7178 21.875 23.7178C21.5258 23.7178 21.0775 23.5629 20.9643 23.1265C20.9175 22.9472 20.9648 22.7493 21.0934 22.5828ZM11.4368 16.8098C11.5825 16.6215 11.8001 16.5091 12.019 16.5091C12.0499 16.5091 12.0812 16.5115 12.1125 16.5162L12.1316 16.5191L12.1509 16.5175C12.5759 16.4849 12.9255 16.8795 13.1393 17.2086C13.2649 17.4021 13.2121 17.5068 13.1948 17.5412C13.0778 17.7737 12.5979 17.9234 12.2963 17.9422C12.2705 17.9439 12.2443 17.9448 12.2182 17.9448C11.869 17.9448 11.4209 17.7899 11.3075 17.3536C11.261 17.1745 11.3081 16.9762 11.4368 16.8098ZM22.799 11.4007C22.6821 11.6332 22.2021 11.7831 21.9007 11.8019C21.8748 11.8035 21.8489 11.8045 21.8228 11.8045C21.4733 11.8045 21.0251 11.6495 20.9118 11.2132C20.8652 11.0339 20.9125 10.8361 21.0411 10.6694C21.1868 10.4812 21.4043 10.3688 21.6234 10.3688C21.6543 10.3688 21.6855 10.3711 21.7169 10.3758L21.7361 10.3787L21.7552 10.3773C22.1804 10.3454 22.5298 10.7391 22.7437 11.0685C22.869 11.2617 22.8165 11.3664 22.799 11.4007Z" fill="black"/>
</svg>
