<svg width="20" height="20" viewBox="0 0 20 20" fill="none" xmlns="http://www.w3.org/2000/svg">
<path d="M9.06023 0.106839C3.77656 0.949652 -0.571711 5.23534 0.0614366 10.7926C0.510453 14.7341 4.11836 20.5003 8.61371 19.8956C13.7475 20.796 18.9768 15.7123 19.3158 10.7245C19.7091 4.93734 15.1414 -0.863019 9.06023 0.106839ZM10.6032 17.7936C10.5399 17.7648 10.4699 17.7481 10.3946 17.7589C4.78576 18.5588 0.907779 12.6072 2.53217 7.57383C3.7174 3.90095 7.70083 1.51699 11.4552 2.09119C14.9891 2.63154 17.0735 5.78182 17.3682 9.1403C17.7319 13.2839 14.4308 16.8566 10.6032 17.7936Z" fill="#F66F6C"/>
<path d="M9.82073 9.18155C9.94611 8.50107 9.99915 7.80897 10.0694 7.12133C10.1299 6.52887 10.3565 5.80376 10.2535 5.21358C10.1836 4.81221 9.68081 4.86265 9.48931 5.11373C9.1965 5.49736 9.29864 6.29782 9.27663 6.74881C9.23771 7.54554 9.1963 8.34206 9.15851 9.13869C9.07185 9.1582 8.99006 9.18373 8.92477 9.22276C8.80302 9.29542 8.73929 9.40274 8.71458 9.51733C6.69526 9.62964 4.66991 9.67634 2.65245 9.80629L2.65256 9.80692C2.29436 9.78003 2.1832 10.4313 2.65245 10.4648C4.49958 10.5965 6.63516 10.7881 8.52308 10.4548C8.53782 10.4972 8.55671 10.5384 8.58474 10.5771C8.86778 10.9669 9.34493 10.888 9.697 10.644C10.0393 10.4068 10.313 10.0844 10.2513 9.64469C10.2186 9.41042 10.0408 9.2622 9.82073 9.18155ZM5.78955 6.99823C5.57936 6.74072 5.17923 6.69411 4.88819 6.56956C4.61054 6.45082 4.36413 6.83424 4.64469 6.98629C4.93573 7.14406 5.29849 7.36286 5.63686 7.36701C5.8404 7.3694 5.90237 7.13649 5.78955 6.99823ZM7.41788 5.15712C7.21575 4.9793 6.99622 4.82229 6.76262 4.68849C6.51382 4.54681 6.21303 4.90594 6.44802 5.0963C6.63672 5.24929 6.81223 5.41931 6.98713 5.58776C7.15268 5.7473 7.3283 5.96018 7.56412 6.00917C7.74452 6.04643 7.88994 5.90133 7.85236 5.72083C7.80337 5.48563 7.59038 5.30783 7.41788 5.15712ZM9.89525 2.79569C9.72129 3.10063 9.75679 3.45582 9.78699 3.79346C9.81024 4.05409 10.1677 4.05378 10.1914 3.79346C10.2164 3.51716 10.2678 3.25352 10.3572 2.9903C10.4507 2.71493 10.0351 2.55021 9.89525 2.79569ZM13.542 4.96863C13.1678 5.11809 13.0432 5.50504 12.9073 5.85483C12.8231 6.07103 13.1544 6.18977 13.2684 6.0071C13.4343 5.74148 13.6831 5.51033 13.788 5.21431C13.8357 5.07948 13.6812 4.91299 13.542 4.96863ZM15.053 6.58087C14.9207 6.73355 14.8327 6.80881 14.6307 6.84742C14.4947 6.87347 14.3996 7.0193 14.3996 7.15091C14.3996 7.33691 14.5439 7.44652 14.7143 7.46572C15.0616 7.50454 15.4461 7.32601 15.6133 7.01318C15.7975 6.66827 15.328 6.26347 15.053 6.58087ZM16.5291 10.116C16.1207 10.0146 15.6983 10.0829 15.288 9.98285C14.9229 9.8939 14.7929 10.4092 15.1353 10.5367C15.5655 10.6967 16.0819 10.7628 16.5291 10.6521C16.7952 10.5863 16.7949 10.1819 16.5291 10.116ZM14.2665 12.5672C14.068 12.5166 13.9269 12.8145 14.123 12.9074C14.2955 12.9893 14.4402 13.0932 14.5768 13.2262C14.7243 13.3699 14.8255 13.5088 15.0361 13.5544C15.1836 13.5865 15.3059 13.4646 15.2735 13.3172C15.1837 12.9071 14.6371 12.6618 14.2665 12.5672ZM13.8233 15.1203C13.7422 14.8314 13.4222 14.6335 13.2504 14.3983C13.1411 14.2485 12.8522 14.3323 12.9271 14.5346C13.0278 14.8064 13.2017 15.0755 13.3686 15.3121C13.5255 15.5341 13.9035 15.4057 13.8233 15.1203ZM9.74558 15.9521C9.67593 15.7006 9.30746 15.7006 9.23781 15.9521C9.18197 16.1533 9.23003 16.3865 9.24435 16.5919C9.26003 16.8175 9.25785 17.0533 9.30331 17.2753C9.34171 17.4623 9.64158 17.4623 9.67988 17.2753C9.72544 17.0532 9.72316 16.8175 9.73893 16.5919C9.75326 16.3863 9.80132 16.1533 9.74558 15.9521ZM7.03913 14.7353C6.8113 15.0834 6.66526 15.4728 6.73636 15.8951C6.76096 16.0413 6.99471 16.035 7.02439 15.8951C7.08314 15.6186 7.13244 15.2592 7.37864 15.0749C7.70913 14.8276 7.25419 14.4066 7.03913 14.7353ZM4.90231 13.0069C4.67583 13.2749 4.50508 13.5804 4.29355 13.8592C4.10205 14.1115 4.49159 14.3455 4.70126 14.1738C4.95265 13.9679 5.13688 13.6996 5.37665 13.4814C5.69987 13.187 5.18017 12.6781 4.90231 13.0069Z" fill="#F66F6C"/>
</svg>
